<?xml version="1.0" encoding="UTF-8"?>
<svg viewBox="0 0 401.83081 730.38171" xmlns="http://www.w3.org/2000/svg" xmlns:xlink="http://www.w3.org/1999/xlink">
 <defs>
  <filter id="b" x="-.02153" y="-.28222" width="1.043" height="1.5644">
   <feGaussianBlur stdDeviation=".90761"/>
  </filter>
  <linearGradient id="c">
   <stop stop-color="#800080" offset="0"/>
   <stop stop-color="#800080" stop-opacity="0" offset="1"/>
  </linearGradient>
  <linearGradient id="a">
   <stop stop-color="#800080" offset="0"/>
   <stop stop-color="#800080" offset="1"/>
  </linearGradient>
  <linearGradient id="e" x2="0" y1="706.89" y2="721.87" gradientUnits="userSpaceOnUse" xlink:href="#c"/>
  <linearGradient id="p" x1="51.516" x2="67.992" y1="2738.8" y2="2664.5" gradientTransform="matrix(1.7592 0 0 .25667 1453.5 24.871)" gradientUnits="userSpaceOnUse" xlink:href="#a" spreadMethod="reflect"/>
  <linearGradient id="o" x1="210.92" x2="226.09" y1="2738.8" y2="2660.5" gradientTransform="matrix(1.7592 0 0 .25667 1453.5 24.871)" gradientUnits="userSpaceOnUse" xlink:href="#a" spreadMethod="reflect"/>
  <linearGradient id="n" x1="203.06" x2="246.66" y1="1083.6" y2="1021" gradientTransform="matrix(1.0864 0 0 .41562 1010.7 24.871)" gradientUnits="userSpaceOnUse" xlink:href="#a" spreadMethod="reflect"/>
  <linearGradient id="m" x1="105.7" x2="161.25" y1="2378.7" y2="2245.2" gradientTransform="matrix(1.8476 0 0 .24438 1010.7 24.871)" gradientUnits="userSpaceOnUse" xlink:href="#a"/>
  <linearGradient id="l" x1="59.295" x2="72.332" y1="2729.1" y2="2667.7" gradientTransform="matrix(1.7592 0 0 .25667 1010.7 24.871)" gradientUnits="userSpaceOnUse" xlink:href="#a" spreadMethod="reflect"/>
  <linearGradient id="k" x1="213.93" x2="226.74" y1="2729.1" y2="2679" gradientTransform="matrix(1.7592 0 0 .25667 1010.7 24.871)" gradientUnits="userSpaceOnUse" xlink:href="#a" spreadMethod="reflect"/>
  <linearGradient id="j" x1="365.7" x2="394.54" y1="90.509" y2="74.446" gradientTransform="matrix(.63172 0 0 .71476 1010.7 24.871)" gradientUnits="userSpaceOnUse" xlink:href="#a" spreadMethod="reflect"/>
  <linearGradient id="i" x1="1236.8" x2="1267.2" y1="120.02" y2="107.91" gradientUnits="userSpaceOnUse" xlink:href="#a" spreadMethod="reflect"/>
  <linearGradient id="h" x1="85.519" x2="125.38" y1="2556.7" y2="2483.9" gradientTransform="matrix(2.0881 0 0 .21624 1010.7 24.871)" gradientUnits="userSpaceOnUse" xlink:href="#a" spreadMethod="reflect"/>
  <linearGradient id="g" x1="170.52" x2="150.39" y1="935.77" y2="918.01" gradientTransform="matrix(1.5061 0 0 .2998 1010.7 24.871)" gradientUnits="userSpaceOnUse" xlink:href="#a" spreadMethod="reflect"/>
  <linearGradient id="d" x2="0" y1="718.78" y2="733.76" gradientUnits="userSpaceOnUse" xlink:href="#c"/>
  <radialGradient id="f" cx="403.01" cy="598.56" r="54.829" gradientTransform="matrix(1 0 0 .17511 0 493.74)" gradientUnits="userSpaceOnUse">
   <stop stop-opacity=".1134" offset="0"/>
   <stop stop-opacity="0" offset="1"/>
  </radialGradient>
 </defs>
 <g transform="translate(-23.251 -7.3091)">
  <path transform="matrix(.88288 0 0 1 -225.86 -.44449)" d="m619.6 714.15h79.327v7.7278h-79.327z" fill="#800080" filter="#800080"/>
  <path transform="matrix(.88288 0 0 1 -474.56 -.44449)" d="m619.6 714.15h79.327v7.7278h-79.327z" fill="#800080" filter="#800080"/>
  <path d="m333.59 726.03h79.327v7.7278h-79.327z" fill="#800080" filter="#800080"/>
  <path d="m50.949 726.03h79.327v7.7278h-79.327z" fill="#800080" filter="#800080"/>
  <path transform="matrix(3.6642 -.076786 .18696 2.1043 -1364.5 -511.56)" d="m457.83 598.56a54.829 9.6014 0 1 1 -109.66 0 54.829 9.6014 0 1 1 109.66 0z" fill="url(#f)" fill-rule="evenodd"/>
  <g transform="matrix(.88149 0 0 .91286 -1265.8 51.254)" stroke="#800080" stroke-opacity=".81714">
   <path d="m1683.3 95.393c-2.2572 59.33-1.2529 152.64-7.3794 205.19-6.7713 54.493-10.641 110.92-20.314 163.48l-39.661 120.92-87.06 137.36 64.811-1.9346c1.5441-57.376 49.888-89.337 107.37-89.337 56.519 0 100.32 38.067 103.5 90.304 20.314-0.32241 41.141 0.55215 61.455 0.22974-29.665-45.787-59.843-92.771-89.508-138.56l-39.661-120.92c-9.6733-55.783-14.151-137.23-20.922-192.04-4.5143-53.848-5.1592-115.44-7.7387-173.15" fill="none" stroke-width="3.3598"/>
   <path d="m1696.3 139.59-13.958 13.958 13.958 13.958 13.958-13.958-13.958-13.958z" fill="none" stroke-width="1.6799"/>
   <path d="m1696.3 167.66-14.434 14.434 14.434 14.434 14.434-14.434-14.434-14.434z" fill="none" stroke-width="1.6799"/>
   <path d="m1696.3 196.69-15.384 15.384 15.384 15.384 15.384-15.384-15.384-15.384z" fill="none" stroke-width="1.6799"/>
   <path d="m1696.3 227.67-16.297 16.81 16.297 16.81 16.81-16.81-16.81-16.81z" fill="none" stroke-width="1.6799"/>
   <path d="m1696.3 261.55-18.236 18.236 18.236 18.236 18.75-18.236-18.75-18.236z" fill="none" stroke-width="1.6799"/>
   <path d="m1683.5 340.83-12.782 10.248 10.248 12.782 12.782-10.248-10.248-12.782z" fill="none" stroke-width="1.6799"/>
   <path d="m1685.9 319.05-12.255 9.825 9.825 12.255 12.255-9.825-9.825-12.255z" fill="none" stroke-width="1.6799"/>
   <path d="m1681.1 364.04-12.782 10.248 10.248 12.782 12.782-10.248-10.248-12.782z" fill="none" stroke-width="1.6799"/>
   <path d="m1678.7 386.77-12.782 10.248 10.248 12.782 12.782-10.248-10.248-12.782z" fill="none" stroke-width="1.6799"/>
   <path d="m1676.3 410-13.31 10.671 10.671 13.31 13.31-10.671-10.671-13.31z" fill="none" stroke-width="1.6799"/>
   <path d="m1673.5 433.71-14.365 11.517 11.517 14.365 14.365-11.517-11.517-14.365z" fill="none" stroke-width="1.6799"/>
   <path d="m1710 340.83 12.782 10.248-10.248 12.782-12.782-10.248 10.248-12.782z" fill="none" stroke-width="1.6799"/>
   <path d="m1707.6 319.05 12.255 9.825-9.825 12.255-12.255-9.825 9.825-12.255z" fill="none" stroke-width="1.6799"/>
   <path d="m1712.4 364.04 12.782 10.248-10.248 12.782-12.782-10.248 10.248-12.782z" fill="none" stroke-width="1.6799"/>
   <path d="m1714.8 386.77 12.782 10.248-10.248 12.782-12.782-10.248 10.248-12.782z" fill="none" stroke-width="1.6799"/>
   <path d="m1717.2 410 13.31 10.671-10.671 13.31-13.31-10.671 10.671-13.31z" fill="none" stroke-width="1.6799"/>
   <path d="m1720 433.71 14.365 11.517-11.517 14.365-14.365-11.517 11.517-14.365z" fill="none" stroke-width="1.6799"/>
   <path d="m1652.3 529.44-21.769 14.138 13.002 21.004 21.769-14.138-13.002-21.004z" fill="none" stroke-width="1.6799"/>
   <path d="m1660 497.97-19.414 12.608 11.595 18.732 19.414-12.608-11.595-18.732z" fill="none" stroke-width="1.6799"/>
   <path d="m1666.7 471.33-16.47 10.697 9.8371 15.892 16.47-10.697-9.8371-15.892z" fill="none" stroke-width="1.6799"/>
   <path d="m1741.3 529.44 21.769 14.138-13.002 21.004-21.769-14.138 13.002-21.004z" fill="none" stroke-width="1.6799"/>
   <path d="m1733.5 497.97 19.414 12.608-11.595 18.732-19.414-12.608 11.595-18.732z" fill="none" stroke-width="1.6799"/>
   <path d="m1726.9 471.33 16.47 10.697-9.8371 15.892-16.47-10.697 9.8372-15.892z" fill="none" stroke-width="1.6799"/>
   <path d="m1618.6 618.64-12.84-0.13901-15.258 7.116 8.9422 17.126 27.219-11.643-8.0628-12.461z" fill="none" stroke-width="1.6799"/>
   <path d="m1599.4 642.93-27.744 11.777 10.567 18.889 28.198-12.915-11.021-17.75z" fill="none" stroke-width="1.6799"/>
   <path d="m1582.1 673.53-30.532 13.396 11.273 19.903 30.532-13.396-11.273-19.903z" fill="none" stroke-width="1.6799"/>
   <path d="m1578.3 720.45-15.71-13.261-33.766 15.163" fill="none" stroke-width="1.6799"/>
   <path d="m1775.8 618.64 13.338 0.10283 15.031 6.8742-9.4552 17.126-25.326-12.126 6.4115-11.977z" fill="none" stroke-width="1.6799"/>
   <path d="m1794.7 642.93 27.914 11.777-10.738 17.921-26.263-12.431 9.0864-17.267z" fill="none" stroke-width="1.6799"/>
   <path d="m1812 673.53 31.558 13.225-12.299 20.074-28.397-13.88 9.1378-19.419z" fill="none" stroke-width="1.6799"/>
   <path d="m1818.7 720.69 12.566-13.261 34.35 14.066" fill="none" stroke-width="1.6799"/>
   <path d="m1682.1 182.13h28.343m-0.684-28.434h-27.83" fill="none" stroke-width="1.6799"/>
   <path d="m1679.9 244.49 33.213 0.171m-0.684-32.414h-31.674" fill="none" stroke-width="1.6799"/>
   <path d="m1714.8 279.59h-36.696" fill="none" stroke-width="1.6799"/>
   <path d="m1695.8 331.46-22.134-2.6672" fill="none" stroke-width="1.6799"/>
   <path d="m1693.5 353.59-22.636-2.565" fill="none" stroke-width="1.6799"/>
   <path d="m1691 376.76-22.465-2.394" fill="none" stroke-width="3.3598"/>
   <path d="m1688.6 399.42-22.636-2.394" fill="none" stroke-width="3.3598"/>
   <path d="m1686.7 423.36-23.662-2.736" fill="none" stroke-width="1.6799"/>
   <path d="m1684.6 448.16-25.372-2.907" fill="none" stroke-width="1.6799"/>
   <path d="m1697.6 331.46 22.134-2.6672" fill="none" stroke-width="1.6799"/>
   <path d="m1699.9 353.59 22.636-2.565" fill="none" stroke-width="1.6799"/>
   <path d="m1702.4 376.76 22.465-2.394" fill="none" stroke-width="3.3598"/>
   <path d="m1704.9 399.42 22.636-2.394" fill="none" stroke-width="3.3598"/>
   <path d="m1706.7 423.36 23.662-2.736" fill="none" stroke-width="1.6799"/>
   <path d="m1708.8 448.16 25.372-2.907" fill="none" stroke-width="1.6799"/>
   <path d="m1676.2 487.06-25.543-5.1301" fill="none" stroke-width="1.6799"/>
   <path d="m1671.5 516.64-31.186-6.1561" fill="none" stroke-width="1.6799"/>
   <path d="m1665 550.67-34.606-6.8401" fill="none" stroke-width="1.6799"/>
   <path d="m1717.5 487.06 25.543-5.1301" fill="none" stroke-width="1.6799"/>
   <path d="m1722.1 516.64 31.186-6.1561" fill="none" stroke-width="1.6799"/>
   <path d="m1728.6 550.67 34.606-6.8401" fill="none" stroke-width="1.6799"/>
   <path d="m1626.2 631.13-35.974-5.4721" fill="none" stroke-width="1.6799"/>
   <path d="m1610.3 660.78-37.968-5.8849" fill="none" stroke-width="1.6799"/>
   <path d="m1593 693.2-41.276-6.1561" fill="none" stroke-width="1.6799"/>
   <path d="m1768.9 630.96 35.29-5.3011" fill="none" stroke-width="1.6799"/>
   <path d="m1785.2 660.54 37-5.6431" fill="none" stroke-width="1.6799"/>
   <path d="m1803.2 693.03 40.237-6.1561" fill="none" stroke-width="1.6799"/>
   <path d="m1696.7 321.46-11.754 126.09" fill="none" stroke-width="3.3598"/>
   <path d="m1696.8 321.46 11.754 126.09" fill="none" stroke-width="3.3598"/>
   <path d="m1696.1 137.42 0.5797 184.13" fill="none" stroke-width="1.6799"/>
   <path d="m1689.8 399.81 18.959 48.22" fill="none" stroke-width="1.6799"/>
   <path d="m1703.7 399.57-18.959 48.462" fill="none" stroke-width="1.6799"/>
   <path d="m1689.4 399.29 15.332 0.57879" fill="none" stroke-width="3.3598"/>
   <path d="m1691.6 376.68 9.856 0.16194" fill="none" stroke-width="3.3598"/>
   <path d="m1702.3 375.99-12.671 23.069" fill="none" stroke-width="1.6799"/>
   <path d="m1691.5 376.48 12.913 23.311" fill="none" stroke-width="1.6799"/>
   <path d="m1666.8 471.27-23.312 93.201" fill="none" stroke-width="1.6799"/>
   <path d="m1726.7 471.27 23.312 93.201" fill="none" stroke-width="1.6799"/>
   <path d="m1680.7 471.1-18.084 93.74" fill="none" stroke-width="3.3598"/>
   <path d="m1713.2 469.44 17.195 94.914" fill="none" stroke-width="3.3598"/>
   <path d="m1643.6 603.25-6.4058 7.6149 6.4058 7.615 7.6149-7.615-7.6149-7.6149z" fill="none" stroke-width="1.6799"/>
   <path d="m1659.2 603.25-7.6149 7.615 7.6149 7.615 7.615-7.615-7.615-7.615z" fill="none" stroke-width="1.6799"/>
   <path d="m1674.9 603.25-7.615 7.615 7.615 7.615 7.6149-7.615-7.6149-7.615z" fill="none" stroke-width="1.6799"/>
   <path d="m1690.5 603.25-7.6149 7.615 7.6149 7.615 7.615-7.615-7.615-7.615z" fill="none" stroke-width="1.6799"/>
   <path d="m1706.2 603.25-7.615 7.615 7.615 7.615 7.6149-7.615-7.6149-7.615z" fill="none" stroke-width="1.6799"/>
   <path d="m1721.8 603.25-7.615 7.615 7.615 7.615 7.615-7.615-7.615-7.615z" fill="none" stroke-width="1.6799"/>
   <path d="m1737.5 603.25-7.615 7.615 7.615 7.615 7.6149-7.615-7.6149-7.615z" fill="none" stroke-width="1.6799"/>
   <path d="m1753.1 603.25-7.6149 7.615 7.6149 7.615 5.9222-7.615-5.9222-7.615z" fill="none" stroke-width="1.6799"/>
   <path d="m1641.4 603.56-62.66 117.17" fill="none" stroke-width="3.3598"/>
   <path d="m1755 603.56 62.973 117.63" fill="none" stroke-width="3.3598"/>
   <path d="m1605.8 603.02v14.946m13.318 0v-17.365" fill="none" stroke-width="1.6799"/>
   <path d="m1632.4 617.97v-14.946" fill="none" stroke-width="1.6799"/>
   <path d="m1762.5 603.02v14.946m13.318 0v-15.914" fill="none" stroke-width="1.6799"/>
   <path d="m1789.2 617.97v-14.946" fill="none" stroke-width="1.6799"/>
   <path d="m1616.6 664.91-6.574-4.6221" fill="none" stroke-width="1.6799"/>
   <path d="m1626.8 655.25-8.7919-7.5241" fill="none" stroke-width="1.6799"/>
   <path d="m1636.5 648.91-7.8661-9.2341" fill="none" stroke-width="1.6799"/>
   <path d="m1645.3 643.44-6.8401-9.2342" fill="none" stroke-width="1.6799"/>
   <path d="m1653.6 640.02-5.814-10.602" fill="none" stroke-width="1.6799"/>
   <path d="m1662.8 636.26-4.4461-9.9181" fill="none" stroke-width="1.6799"/>
   <path d="m1670.7 634.21-4.1041-10.944" fill="none" stroke-width="1.6799"/>
   <path d="m1679.9 632.15-3.0781-10.602" fill="none" stroke-width="1.6799"/>
   <path d="m1687.4 631.13-1.71-10.944" fill="none" stroke-width="1.6799"/>
   <path d="m1781.1 664.3 4.8811-4.2801" fill="none" stroke-width="1.6799"/>
   <path d="m1772.2 655.75 7.3409-6.999" fill="none" stroke-width="1.6799"/>
   <path d="m1764 649.6 7.8661-8.2081" fill="none" stroke-width="1.6799"/>
   <path d="m1755.1 644.81 6.8401-9.2342" fill="none" stroke-width="1.6799"/>
   <path d="m1746.9 640.7 5.472-9.9182" fill="none" stroke-width="1.6799"/>
   <path d="m1738.4 636.94 4.788-10.26" fill="none" stroke-width="1.6799"/>
   <path d="m1730.5 634.89 3.4201-10.602" fill="none" stroke-width="1.6799"/>
   <path d="m1721.3 632.84 3.4201-10.602" fill="none" stroke-width="1.6799"/>
   <path d="m1713.4 631.47 2.0521-10.944" fill="none" stroke-width="1.6799"/>
   <path d="m1704.5 630.44 0.684-10.602" fill="none" stroke-width="1.6799"/>
   <path d="m1696.6 630.44-0.684-10.26" fill="none" stroke-width="1.6799"/>
   <path d="m1696 620.18" fill="none" stroke-width="1.6799"/>
   <path d="m1596.8 702.61-7.8175-1.6685" fill="none" stroke-width="1.6799"/>
   <path d="m1594.7 713.21-11.587-0.68406" fill="none" stroke-width="1.6799"/>
   <path d="m1803 711.16 9.2685-0.34203" fill="none" stroke-width="1.6799"/>
   <path d="m1801 701.24 5.8828-1.3852" fill="none" stroke-width="1.6799"/>
   <path d="m1617.9 647.64c18.773-17.527 49.01-27.947 81.324-27.947s62.068 10.903 80.115 29.156" fill="none" stroke-width="3.3598"/>
   <path d="m1612.6 618.43-57.547 103.07" fill="none" stroke-width="1.6799"/>
   <path d="m1780.8 618.43 58.514 103.07" fill="none" stroke-width="1.6799"/>
   <path d="m1519.8 718v8.2082h75.925v-8.2082h-75.925z" fill="#800080" fill-rule="evenodd" stroke-width="3.3598"/>
   <path d="m1802.3 718v8.2082h75.925v-8.2082h-75.925z" fill="#800080" fill-rule="evenodd" stroke-width="3.3598"/>
   <path d="m1594.4 618.82h205.52" fill="none" stroke-width="3.3598"/>
   <path d="m1687 301.34-11.439 6.1604 10.264 11.439 11.439-10.264-10.264-7.3347z" fill="none" stroke-width="1.6799"/>
   <path d="m1706.6 302.71 11.439 4.7924-10.264 11.439-11.439-10.265 10.264-5.9667z" fill="none" stroke-width="1.6799"/>
  </g>
  <g transform="translate(-1024.3 -.44449)" stroke="#800080">
   <path d="m1239.9 122.6c-2.2572 59.33-0.6449 125.43-6.7714 177.99-6.7713 54.493-10.641 110.92-20.314 163.48l-39.661 120.92-87.06 137.36 64.811-1.9346c1.5441-57.376 49.888-89.337 107.37-89.337 56.519 0 100.32 38.067 103.5 90.304 20.314-0.32241 41.141 0.55215 61.455 0.22974-29.665-45.787-59.843-92.771-89.508-138.56l-39.661-120.92c-9.6733-55.783-13.543-109.63-20.314-164.45-4.5143-53.848-5.1592-115.44-7.7387-173.15" fill="none" stroke-width="3.3598"/>
   <path d="m1253.5 139.59-13.958 13.958 13.958 13.958 13.958-13.958-13.958-13.958z" fill="none" stroke-width="1.6799"/>
   <path d="m1253.5 167.66-14.434 14.434 14.434 14.434 14.434-14.434-14.434-14.434z" fill="none" stroke-width="1.6799"/>
   <path d="m1253.5 196.69-15.384 15.384 15.384 15.384 15.384-15.384-15.384-15.384z" fill="none" stroke-width="1.6799"/>
   <path d="m1253.5 227.67-16.297 16.81 16.297 16.81 16.81-16.81-16.81-16.81z" fill="none" stroke-width="1.6799"/>
   <path d="m1253.5 261.55-18.236 18.236 18.236 18.236 18.75-18.236-18.75-18.236z" fill="none" stroke-width="1.6799"/>
   <path d="m1240.7 340.83-12.782 10.248 10.248 12.782 12.782-10.248-10.248-12.782z" fill="none" stroke-width="1.6799"/>
   <path d="m1243.1 319.05-12.255 9.825 9.825 12.255 12.255-9.825-9.825-12.255z" fill="none" stroke-width="1.6799"/>
   <path d="m1238.3 364.04-12.782 10.248 10.248 12.782 12.782-10.248-10.248-12.782z" fill="none" stroke-width="1.6799"/>
   <path d="m1235.9 386.77-12.782 10.248 10.248 12.782 12.782-10.248-10.248-12.782z" fill="none" stroke-width="1.6799"/>
   <path d="m1233.5 410-13.31 10.671 10.671 13.31 13.31-10.671-10.671-13.31z" fill="none" stroke-width="1.6799"/>
   <path d="m1230.7 433.71-14.365 11.517 11.517 14.365 14.365-11.517-11.517-14.365z" fill="none" stroke-width="1.6799"/>
   <path d="m1267.2 340.83 12.782 10.248-10.248 12.782-12.782-10.248 10.248-12.782z" fill="none" stroke-width="1.6799"/>
   <path d="m1264.8 319.05 12.255 9.825-9.825 12.255-12.255-9.825 9.825-12.255z" fill="none" stroke-width="1.6799"/>
   <path d="m1269.6 364.04 12.782 10.248-10.248 12.782-12.782-10.248 10.248-12.782z" fill="none" stroke-width="1.6799"/>
   <path d="m1272 386.77 12.782 10.248-10.248 12.782-12.782-10.248 10.248-12.782z" fill="none" stroke-width="1.6799"/>
   <path d="m1274.4 410 13.31 10.671-10.671 13.31-13.31-10.671 10.671-13.31z" fill="none" stroke-width="1.6799"/>
   <path d="m1277.2 433.71 14.365 11.517-11.517 14.365-14.365-11.517 11.517-14.365z" fill="none" stroke-width="1.6799"/>
   <path d="m1209.5 529.44-21.769 14.138 13.002 21.004 21.769-14.138-13.002-21.004z" fill="none" stroke-width="1.6799"/>
   <path d="m1217.2 497.97-19.414 12.608 11.595 18.732 19.414-12.608-11.595-18.732z" fill="none" stroke-width="1.6799"/>
   <path d="m1223.9 471.33-16.47 10.697 9.8371 15.892 16.47-10.697-9.8371-15.892z" fill="none" stroke-width="1.6799"/>
   <path d="m1298.4 529.44 21.769 14.138-13.002 21.004-21.769-14.138 13.002-21.004z" fill="none" stroke-width="1.6799"/>
   <path d="m1290.7 497.97 19.414 12.608-11.595 18.732-19.414-12.608 11.595-18.732z" fill="none" stroke-width="1.6799"/>
   <path d="m1284 471.33 16.47 10.697-9.8371 15.892-16.47-10.697 9.8372-15.892z" fill="none" stroke-width="1.6799"/>
   <path d="m1175.7 618.64-12.84-0.13901-15.258 7.116 8.9422 17.126 27.219-11.643-8.0628-12.461z" fill="none" stroke-width="1.6799"/>
   <path d="m1156.6 642.93-27.744 11.777 10.567 18.889 28.198-12.915-11.021-17.75z" fill="none" stroke-width="1.6799"/>
   <path d="m1139.3 673.53-30.532 13.396 11.273 19.903 30.532-13.396-11.273-19.903z" fill="none" stroke-width="1.6799"/>
   <path d="m1135.5 720.45-15.71-13.261-33.766 15.163" fill="none" stroke-width="1.6799"/>
   <path d="m1333 618.64 13.338 0.10283 15.031 6.8742-9.4552 17.126-25.326-12.126 6.4115-11.977z" fill="none" stroke-width="1.6799"/>
   <path d="m1351.9 642.93 27.914 11.777-10.738 17.921-26.263-12.431 9.0864-17.267z" fill="none" stroke-width="1.6799"/>
   <path d="m1369.2 673.53 31.558 13.225-12.299 20.074-28.397-13.88 9.1378-19.419z" fill="none" stroke-width="1.6799"/>
   <path d="m1375.9 720.69 12.566-13.261 34.35 14.066" fill="none" stroke-width="1.6799"/>
   <path d="m1239.3 182.13h28.343m-0.684-28.434h-27.83" fill="none" stroke-width="1.6799"/>
   <path d="m1237.1 244.49 33.213 0.171m-0.684-32.414h-31.674" fill="none" stroke-width="1.6799"/>
   <path d="m1272 279.59h-36.696" fill="none" stroke-width="1.6799"/>
   <path d="m1253 331.46-22.134-2.6672" fill="none" stroke-width="1.6799"/>
   <path d="m1250.7 353.59-22.636-2.565" fill="none" stroke-width="1.6799"/>
   <path d="m1248.2 376.76-22.465-2.394" fill="none" stroke-width="3.3598"/>
   <path d="m1245.7 399.42-22.636-2.394" fill="none" stroke-width="3.3598"/>
   <path d="m1243.8 423.36-23.662-2.736" fill="none" stroke-width="1.6799"/>
   <path d="m1241.8 448.16-25.372-2.907" fill="none" stroke-width="1.6799"/>
   <path d="m1254.8 331.46 22.134-2.6672" fill="none" stroke-width="1.6799"/>
   <path d="m1257.1 353.59 22.636-2.565" fill="none" stroke-width="1.6799"/>
   <path d="m1259.6 376.76 22.465-2.394" fill="none" stroke-width="3.3598"/>
   <path d="m1262 399.42 22.636-2.394" fill="none" stroke-width="3.3598"/>
   <path d="m1263.9 423.36 23.662-2.736" fill="none" stroke-width="1.6799"/>
   <path d="m1266 448.16 25.372-2.907" fill="none" stroke-width="1.6799"/>
   <path d="m1233.3 487.06-25.543-5.1301" fill="none" stroke-width="1.6799"/>
   <path d="m1228.7 516.64-31.186-6.1561" fill="none" stroke-width="1.6799"/>
   <path d="m1222.2 550.67-34.606-6.8401" fill="none" stroke-width="1.6799"/>
   <path d="m1274.6 487.06 25.543-5.1301" fill="none" stroke-width="1.6799"/>
   <path d="m1279.3 516.64 31.186-6.1561" fill="none" stroke-width="1.6799"/>
   <path d="m1285.8 550.67 34.606-6.8401" fill="none" stroke-width="1.6799"/>
   <path d="m1183.4 631.13-35.974-5.4721" fill="none" stroke-width="1.6799"/>
   <path d="m1167.4 660.78-37.968-5.8849" fill="none" stroke-width="1.6799"/>
   <path d="m1150.2 693.2-41.276-6.1561" fill="none" stroke-width="1.6799"/>
   <path d="m1326.1 630.96 35.29-5.3011" fill="none" stroke-width="1.6799"/>
   <path d="m1342.4 660.54 37-5.6431" fill="none" stroke-width="1.6799"/>
   <path d="m1360.3 693.03 40.237-6.1561" fill="none" stroke-width="1.6799"/>
   <path d="m1253.9 321.46-11.754 126.09" fill="none" stroke-width="3.3598"/>
   <path d="m1254 321.46 11.754 126.09" fill="none" stroke-width="3.3598"/>
   <path d="m1253.3 137.42 0.5797 184.13" fill="none" stroke-width="1.6799"/>
   <path d="m1253.3 9.8535-0.2168 64.28" fill="none" stroke-linecap="round" stroke-linejoin="round" stroke-width="4.1998"/>
   <path d="m1247 399.81 18.959 48.22" fill="none" stroke-width="1.6799"/>
   <path d="m1260.9 399.57-18.959 48.462" fill="none" stroke-width="1.6799"/>
   <path d="m1246.6 399.29 15.332 0.57879" fill="none" stroke-width="3.3598"/>
   <path d="m1248.8 376.68 9.856 0.16194" fill="none" stroke-width="3.3598"/>
   <path d="m1259.4 375.99-12.671 23.069" fill="none" stroke-width="1.6799"/>
   <path d="m1248.7 376.48 12.913 23.311" fill="none" stroke-width="1.6799"/>
   <path d="m1224 471.27-23.312 93.201" fill="none" stroke-width="1.6799"/>
   <path d="m1283.9 471.27 23.312 93.201" fill="none" stroke-width="1.6799"/>
   <path d="m1235.8 480.1-16.057 84.737" fill="none" stroke-width="3.3598"/>
   <path d="m1272 479.62 15.573 84.737" fill="none" stroke-width="3.3598"/>
   <path d="m1200.7 603.25-6.4058 7.6149 6.4058 7.615 7.6149-7.615-7.6149-7.6149z" fill="none" stroke-width="1.6799"/>
   <path d="m1216.4 603.25-7.6149 7.615 7.6149 7.615 7.615-7.615-7.615-7.615z" fill="none" stroke-width="1.6799"/>
   <path d="m1232 603.25-7.615 7.615 7.615 7.615 7.6149-7.615-7.6149-7.615z" fill="none" stroke-width="1.6799"/>
   <path d="m1247.7 603.25-7.6149 7.615 7.6149 7.615 7.615-7.615-7.615-7.615z" fill="none" stroke-width="1.6799"/>
   <path d="m1263.3 603.25-7.615 7.615 7.615 7.615 7.6149-7.615-7.6149-7.615z" fill="none" stroke-width="1.6799"/>
   <path d="m1279 603.25-7.615 7.615 7.615 7.615 7.615-7.615-7.615-7.615z" fill="none" stroke-width="1.6799"/>
   <path d="m1294.6 603.25-7.615 7.615 7.615 7.615 7.6149-7.615-7.6149-7.615z" fill="none" stroke-width="1.6799"/>
   <path d="m1310.3 603.25-7.6149 7.615 7.6149 7.615 5.9222-7.615-5.9222-7.615z" fill="none" stroke-width="1.6799"/>
   <path d="m1198.6 603.56-62.66 117.17" fill="none" stroke-width="3.3598"/>
   <path d="m1312.2 603.56 62.973 117.63" fill="none" stroke-width="3.3598"/>
   <path d="m1163 603.02v14.946m13.318 0v-17.365" fill="none" stroke-width="1.6799"/>
   <path d="m1189.6 617.97v-14.946" fill="none" stroke-width="1.6799"/>
   <path d="m1319.7 603.02v14.946m13.318 0v-15.914" fill="none" stroke-width="1.6799"/>
   <path d="m1346.3 617.97v-14.946" fill="none" stroke-width="1.6799"/>
   <path d="m1173.7 664.91-6.574-4.6221" fill="none" stroke-width="1.6799"/>
   <path d="m1184 655.25-8.7919-7.5241" fill="none" stroke-width="1.6799"/>
   <path d="m1193.6 648.91-7.8661-9.2341" fill="none" stroke-width="1.6799"/>
   <path d="m1202.5 643.44-6.8401-9.2342" fill="none" stroke-width="1.6799"/>
   <path d="m1210.7 640.02-5.814-10.602" fill="none" stroke-width="1.6799"/>
   <path d="m1220 636.26-4.4461-9.9181" fill="none" stroke-width="1.6799"/>
   <path d="m1227.8 634.21-4.1041-10.944" fill="none" stroke-width="1.6799"/>
   <path d="m1237.1 632.15-3.0781-10.602" fill="none" stroke-width="1.6799"/>
   <path d="m1244.6 631.13-1.71-10.944" fill="none" stroke-width="1.6799"/>
   <path d="m1338.3 664.3 4.8811-4.2801" fill="none" stroke-width="1.6799"/>
   <path d="m1329.4 655.75 7.3409-6.999" fill="none" stroke-width="1.6799"/>
   <path d="m1321.2 649.6 7.8661-8.2081" fill="none" stroke-width="1.6799"/>
   <path d="m1312.3 644.81 6.8401-9.2342" fill="none" stroke-width="1.6799"/>
   <path d="m1304.1 640.7 5.472-9.9182" fill="none" stroke-width="1.6799"/>
   <path d="m1295.5 636.94 4.788-10.26" fill="none" stroke-width="1.6799"/>
   <path d="m1287.7 634.89 3.4201-10.602" fill="none" stroke-width="1.6799"/>
   <path d="m1278.4 632.84 3.4201-10.602" fill="none" stroke-width="1.6799"/>
   <path d="m1270.6 631.47 2.0521-10.944" fill="none" stroke-width="1.6799"/>
   <path d="m1261.7 630.44 0.684-10.602" fill="none" stroke-width="1.6799"/>
   <path d="m1253.8 630.44-0.684-10.26" fill="none" stroke-width="1.6799"/>
   <path d="m1253.1 620.18" fill="none" stroke-width="1.6799"/>
   <path d="m1154 702.61-7.8175-1.6685" fill="none" stroke-width="1.6799"/>
   <path d="m1151.9 713.21-11.587-0.68406" fill="none" stroke-width="1.6799"/>
   <path d="m1360.2 711.16 9.2685-0.34203" fill="none" stroke-width="1.6799"/>
   <path d="m1358.1 701.24 5.8828-1.3852" fill="none" stroke-width="1.6799"/>
   <path d="m1175.1 647.64c18.773-17.527 49.01-27.947 81.324-27.947s62.068 10.903 80.115 29.156" fill="none" stroke-width="3.3598"/>
   <path d="m1169.7 618.43-57.547 103.07" fill="none" stroke-width="1.6799"/>
   <path d="m1337.9 618.43 58.514 103.07" fill="none" stroke-width="1.6799"/>
   <path d="m1202.2 444.39 6.4981 21.717-6.4981 14.193c34.542 2.736 69.427 2.736 104.65 0l-8.2081-14.193 8.2081-21.717h-104.65z" fill="url(#n)" fill-rule="evenodd" stroke-width="3.3598"/>
   <path d="m1154.3 581.41 3.078 20.911c34.542 2.9094 159.03 2.9094 194.26 0l2.052-21.275-199.39 0.36368z" fill="url(#m)" fill-rule="evenodd" stroke-width="3.3598"/>
   <path d="m1077 718v8.2082h75.925v-8.2082h-75.925z" fill="url(#l)" fill-rule="evenodd" stroke-width="3.3598"/>
   <path d="m1359.5 718v8.2082h75.925v-8.2082h-75.925z" fill="url(#k)" fill-rule="evenodd" stroke-width="3.3598"/>
   <path d="m1151.6 618.82h205.52" fill="none" stroke-width="3.3598"/>
   <path d="m1252.8 69.165-17.834 22.964 17.834 17.834 17.834-17.834-17.834-22.964z" fill="url(#j)" fill-rule="evenodd" stroke-width="3.3598"/>
   <path d="m1233.7 139.6-1.1445-25.108 1.1445-10.822c12.609-4.1381 23.974-4.4801 38.201 0l1.799 10.822-1.799 25.108h-38.201z" fill="url(#i)" fill-rule="evenodd" stroke-width="3.3598"/>
   <path d="m1155.3 563.67h197.82l-11.124 17.474h-176.06l-10.641-17.474z" fill="url(#h)" fill-rule="evenodd" stroke-width="3.3598"/>
   <path d="m1244.1 301.34-11.439 6.1604 10.264 11.439 11.439-10.264-10.264-7.3347z" fill="none" stroke-width="1.6799"/>
   <path d="m1263.7 302.71 11.439 4.7924-10.264 11.439-11.439-10.265 10.264-5.9667z" fill="none" stroke-width="1.6799"/>
   <path d="m1225.7 298.05v9.3232c19.026 0.71034 36.872 0.71034 56.274 0v-9.3232h-56.274z" fill="url(#g)" fill-rule="evenodd" stroke-width="1.6799"/>
  </g>
 </g>
</svg>
